<mxfile host="app.diagrams.net" agent="Mozilla/5.0 (Windows NT 10.0; Win64; x64) AppleWebKit/537.36 (KHTML, like Gecko) Chrome/131.0.0.0 Safari/537.36" version="25.0.3">
  <diagram name="Page-1" id="13e1069c-82ec-6db2-03f1-153e76fe0fe0">
    <mxGraphModel dx="48" dy="25" grid="1" gridSize="10" guides="1" tooltips="1" connect="1" arrows="1" fold="1" page="1" pageScale="1" pageWidth="1100" pageHeight="850" background="none" math="0" shadow="0">
      <root>
        <mxCell id="0" />
        <mxCell id="1" parent="0" />
        <mxCell id="7baba1c4bc27f4b0-2" value="Приложение" style="shape=umlLifeline;perimeter=lifelinePerimeter;whiteSpace=wrap;html=1;container=1;collapsible=0;recursiveResize=0;outlineConnect=0;rounded=1;shadow=0;comic=0;labelBackgroundColor=none;strokeWidth=1;fontFamily=Verdana;fontSize=12;align=center;" parent="1" vertex="1">
          <mxGeometry x="240" y="80" width="100" height="580" as="geometry" />
        </mxCell>
        <mxCell id="7baba1c4bc27f4b0-10" value="" style="html=1;points=[];perimeter=orthogonalPerimeter;rounded=0;shadow=0;comic=0;labelBackgroundColor=none;strokeWidth=1;fontFamily=Verdana;fontSize=12;align=center;" parent="7baba1c4bc27f4b0-2" vertex="1">
          <mxGeometry x="45" y="100" width="10" height="430" as="geometry" />
        </mxCell>
        <mxCell id="voYhq8gGjPCUMUibBYCb-8" value="Возврат кинофильмов" style="html=1;verticalAlign=bottom;endArrow=open;dashed=1;endSize=8;curved=0;rounded=0;" parent="7baba1c4bc27f4b0-2" edge="1">
          <mxGeometry relative="1" as="geometry">
            <mxPoint x="284.5" y="180" as="sourcePoint" />
            <mxPoint x="60" y="180" as="targetPoint" />
          </mxGeometry>
        </mxCell>
        <mxCell id="voYhq8gGjPCUMUibBYCb-9" value="Отображение страницы&lt;div&gt;кинофильма&lt;/div&gt;" style="html=1;verticalAlign=bottom;endArrow=open;dashed=1;endSize=8;curved=0;rounded=0;" parent="7baba1c4bc27f4b0-2" edge="1">
          <mxGeometry x="0.0031" relative="1" as="geometry">
            <mxPoint x="45" y="289" as="sourcePoint" />
            <mxPoint x="-145" y="289" as="targetPoint" />
            <mxPoint as="offset" />
          </mxGeometry>
        </mxCell>
        <mxCell id="voYhq8gGjPCUMUibBYCb-16" value="&lt;font style=&quot;font-size: 11px;&quot;&gt;Выбор места в зале&lt;/font&gt;" style="html=1;verticalAlign=bottom;endArrow=block;labelBackgroundColor=none;fontFamily=Verdana;fontSize=12;edgeStyle=elbowEdgeStyle;elbow=vertical;entryX=-0.011;entryY=0.477;entryDx=0;entryDy=0;entryPerimeter=0;" parent="7baba1c4bc27f4b0-2" edge="1">
          <mxGeometry relative="1" as="geometry">
            <mxPoint x="-140" y="320.17" as="sourcePoint" />
            <mxPoint x="45" y="320" as="targetPoint" />
          </mxGeometry>
        </mxCell>
        <mxCell id="voYhq8gGjPCUMUibBYCb-22" value="&lt;font style=&quot;font-size: 11px;&quot;&gt;Добавление билетов в корзину&lt;/font&gt;" style="html=1;verticalAlign=bottom;endArrow=block;labelBackgroundColor=none;fontFamily=Verdana;fontSize=12;edgeStyle=elbowEdgeStyle;elbow=vertical;entryX=-0.011;entryY=0.477;entryDx=0;entryDy=0;entryPerimeter=0;" parent="7baba1c4bc27f4b0-2" edge="1">
          <mxGeometry relative="1" as="geometry">
            <mxPoint x="-140" y="390.34000000000003" as="sourcePoint" />
            <mxPoint x="45" y="390.17" as="targetPoint" />
          </mxGeometry>
        </mxCell>
        <mxCell id="ys7FztA4TdzvWo9HPw_2-4" value="&lt;font style=&quot;font-size: 11px;&quot;&gt;Оплата билетов&lt;/font&gt;" style="html=1;verticalAlign=bottom;endArrow=block;labelBackgroundColor=none;fontFamily=Verdana;fontSize=12;edgeStyle=elbowEdgeStyle;elbow=vertical;entryX=-0.011;entryY=0.477;entryDx=0;entryDy=0;entryPerimeter=0;" edge="1" parent="7baba1c4bc27f4b0-2">
          <mxGeometry relative="1" as="geometry">
            <mxPoint x="-140" y="440.34000000000003" as="sourcePoint" />
            <mxPoint x="45" y="440.1700000000001" as="targetPoint" />
          </mxGeometry>
        </mxCell>
        <mxCell id="ys7FztA4TdzvWo9HPw_2-8" value="Обновление отображения&lt;div&gt;купленных билетов&lt;/div&gt;" style="html=1;verticalAlign=bottom;endArrow=open;dashed=1;endSize=8;curved=0;rounded=0;" edge="1" parent="7baba1c4bc27f4b0-2">
          <mxGeometry x="0.0031" relative="1" as="geometry">
            <mxPoint x="45" y="500" as="sourcePoint" />
            <mxPoint x="-145" y="500" as="targetPoint" />
            <mxPoint as="offset" />
          </mxGeometry>
        </mxCell>
        <mxCell id="ys7FztA4TdzvWo9HPw_2-9" value="" style="html=1;points=[[0,0,0,0,5],[0,1,0,0,-5],[1,0,0,0,5],[1,1,0,0,-5]];perimeter=orthogonalPerimeter;outlineConnect=0;targetShapes=umlLifeline;portConstraint=eastwest;newEdgeStyle={&quot;curved&quot;:0,&quot;rounded&quot;:0};" vertex="1" parent="7baba1c4bc27f4b0-2">
          <mxGeometry x="50" y="350" width="10" height="30" as="geometry" />
        </mxCell>
        <mxCell id="ys7FztA4TdzvWo9HPw_2-10" value="Проверка наличия билета" style="html=1;align=left;spacingLeft=2;endArrow=block;rounded=0;edgeStyle=orthogonalEdgeStyle;curved=0;rounded=0;" edge="1" target="ys7FztA4TdzvWo9HPw_2-9" parent="7baba1c4bc27f4b0-2">
          <mxGeometry relative="1" as="geometry">
            <mxPoint x="55" y="330" as="sourcePoint" />
            <Array as="points">
              <mxPoint x="85" y="360" />
            </Array>
          </mxGeometry>
        </mxCell>
        <mxCell id="7baba1c4bc27f4b0-3" value="База данных" style="shape=umlLifeline;perimeter=lifelinePerimeter;whiteSpace=wrap;html=1;container=1;collapsible=0;recursiveResize=0;outlineConnect=0;rounded=1;shadow=0;comic=0;labelBackgroundColor=none;strokeWidth=1;fontFamily=Verdana;fontSize=12;align=center;" parent="1" vertex="1">
          <mxGeometry x="465" y="80" width="100" height="580" as="geometry" />
        </mxCell>
        <mxCell id="7baba1c4bc27f4b0-13" value="" style="html=1;points=[];perimeter=orthogonalPerimeter;rounded=0;shadow=0;comic=0;labelBackgroundColor=none;strokeWidth=1;fontFamily=Verdana;fontSize=12;align=center;" parent="7baba1c4bc27f4b0-3" vertex="1">
          <mxGeometry x="45" y="120" width="10" height="410" as="geometry" />
        </mxCell>
        <mxCell id="voYhq8gGjPCUMUibBYCb-6" value="" style="html=1;points=[[0,0,0,0,5],[0,1,0,0,-5],[1,0,0,0,5],[1,1,0,0,-5]];perimeter=orthogonalPerimeter;outlineConnect=0;targetShapes=umlLifeline;portConstraint=eastwest;newEdgeStyle={&quot;curved&quot;:0,&quot;rounded&quot;:0};" parent="7baba1c4bc27f4b0-3" vertex="1">
          <mxGeometry x="50" y="160" width="10" height="20" as="geometry" />
        </mxCell>
        <mxCell id="voYhq8gGjPCUMUibBYCb-7" value="Получение кинофильмов" style="html=1;align=left;spacingLeft=2;endArrow=block;rounded=0;edgeStyle=orthogonalEdgeStyle;curved=0;rounded=0;" parent="7baba1c4bc27f4b0-3" target="voYhq8gGjPCUMUibBYCb-6" edge="1">
          <mxGeometry relative="1" as="geometry">
            <mxPoint x="55" y="140" as="sourcePoint" />
            <Array as="points">
              <mxPoint x="85" y="170" />
            </Array>
          </mxGeometry>
        </mxCell>
        <mxCell id="voYhq8gGjPCUMUibBYCb-13" value="" style="html=1;points=[[0,0,0,0,5],[0,1,0,0,-5],[1,0,0,0,5],[1,1,0,0,-5]];perimeter=orthogonalPerimeter;outlineConnect=0;targetShapes=umlLifeline;portConstraint=eastwest;newEdgeStyle={&quot;curved&quot;:0,&quot;rounded&quot;:0};" parent="7baba1c4bc27f4b0-3" vertex="1">
          <mxGeometry x="50" y="260" width="10" height="20" as="geometry" />
        </mxCell>
        <mxCell id="voYhq8gGjPCUMUibBYCb-14" value="Получение информации&lt;div&gt;о кинофильме&lt;/div&gt;" style="html=1;align=left;spacingLeft=2;endArrow=block;rounded=0;edgeStyle=orthogonalEdgeStyle;curved=0;rounded=0;" parent="7baba1c4bc27f4b0-3" target="voYhq8gGjPCUMUibBYCb-13" edge="1">
          <mxGeometry relative="1" as="geometry">
            <mxPoint x="55" y="240" as="sourcePoint" />
            <Array as="points">
              <mxPoint x="85" y="270" />
            </Array>
          </mxGeometry>
        </mxCell>
        <mxCell id="ys7FztA4TdzvWo9HPw_2-1" value="&lt;span style=&quot;font-size: 11px;&quot;&gt;Сохранение данных через контекст&lt;/span&gt;&lt;div&gt;&lt;span style=&quot;font-size: 11px;&quot;&gt;в сущности корзины&lt;/span&gt;&lt;/div&gt;" style="html=1;verticalAlign=bottom;endArrow=block;entryX=0;entryY=0;labelBackgroundColor=none;fontFamily=Verdana;fontSize=12;edgeStyle=elbowEdgeStyle;elbow=vertical;" edge="1" parent="7baba1c4bc27f4b0-3">
          <mxGeometry relative="1" as="geometry">
            <mxPoint x="-170" y="410" as="sourcePoint" />
            <mxPoint x="45" y="410" as="targetPoint" />
          </mxGeometry>
        </mxCell>
        <mxCell id="ys7FztA4TdzvWo9HPw_2-2" value="" style="html=1;points=[[0,0,0,0,5],[0,1,0,0,-5],[1,0,0,0,5],[1,1,0,0,-5]];perimeter=orthogonalPerimeter;outlineConnect=0;targetShapes=umlLifeline;portConstraint=eastwest;newEdgeStyle={&quot;curved&quot;:0,&quot;rounded&quot;:0};" vertex="1" parent="7baba1c4bc27f4b0-3">
          <mxGeometry x="55" y="440" width="10" height="20" as="geometry" />
        </mxCell>
        <mxCell id="ys7FztA4TdzvWo9HPw_2-3" value="Обновление данных" style="html=1;align=left;spacingLeft=2;endArrow=block;rounded=0;edgeStyle=orthogonalEdgeStyle;curved=0;rounded=0;" edge="1" parent="7baba1c4bc27f4b0-3" target="ys7FztA4TdzvWo9HPw_2-2">
          <mxGeometry relative="1" as="geometry">
            <mxPoint x="60" y="420" as="sourcePoint" />
            <Array as="points">
              <mxPoint x="90" y="450" />
            </Array>
          </mxGeometry>
        </mxCell>
        <mxCell id="ys7FztA4TdzvWo9HPw_2-6" value="" style="html=1;points=[[0,0,0,0,5],[0,1,0,0,-5],[1,0,0,0,5],[1,1,0,0,-5]];perimeter=orthogonalPerimeter;outlineConnect=0;targetShapes=umlLifeline;portConstraint=eastwest;newEdgeStyle={&quot;curved&quot;:0,&quot;rounded&quot;:0};" vertex="1" parent="7baba1c4bc27f4b0-3">
          <mxGeometry x="55" y="500" width="10" height="20" as="geometry" />
        </mxCell>
        <mxCell id="ys7FztA4TdzvWo9HPw_2-7" value="Обновление данных" style="html=1;align=left;spacingLeft=2;endArrow=block;rounded=0;edgeStyle=orthogonalEdgeStyle;curved=0;rounded=0;" edge="1" parent="7baba1c4bc27f4b0-3" target="ys7FztA4TdzvWo9HPw_2-6">
          <mxGeometry relative="1" as="geometry">
            <mxPoint x="60" y="480" as="sourcePoint" />
            <Array as="points">
              <mxPoint x="90" y="510" />
            </Array>
          </mxGeometry>
        </mxCell>
        <mxCell id="7baba1c4bc27f4b0-11" value="&lt;font style=&quot;font-size: 11px;&quot;&gt;Открытие каталога&lt;/font&gt;" style="html=1;verticalAlign=bottom;endArrow=block;labelBackgroundColor=none;fontFamily=Verdana;fontSize=12;edgeStyle=elbowEdgeStyle;elbow=vertical;" parent="1" source="voYhq8gGjPCUMUibBYCb-4" edge="1">
          <mxGeometry relative="1" as="geometry">
            <mxPoint x="190" y="180" as="sourcePoint" />
            <mxPoint x="280" y="180" as="targetPoint" />
          </mxGeometry>
        </mxCell>
        <mxCell id="7baba1c4bc27f4b0-14" value="&lt;font style=&quot;font-size: 11px;&quot;&gt;Запрос на вывод&amp;nbsp;&lt;/font&gt;&lt;span style=&quot;font-size: 11px; background-color: initial;&quot;&gt;кинофильмов&lt;/span&gt;&lt;div&gt;&lt;span style=&quot;font-size: 11px; background-color: initial;&quot;&gt;в соответствии с переданными&lt;/span&gt;&lt;/div&gt;&lt;div&gt;&lt;span style=&quot;font-size: 11px; background-color: initial;&quot;&gt;фильтрами&lt;/span&gt;&lt;/div&gt;" style="html=1;verticalAlign=bottom;endArrow=block;labelBackgroundColor=none;fontFamily=Verdana;fontSize=12;edgeStyle=elbowEdgeStyle;elbow=vertical;" parent="1" source="7baba1c4bc27f4b0-10" edge="1">
          <mxGeometry relative="1" as="geometry">
            <mxPoint x="370" y="200" as="sourcePoint" />
            <mxPoint x="510" y="200" as="targetPoint" />
          </mxGeometry>
        </mxCell>
        <mxCell id="voYhq8gGjPCUMUibBYCb-4" value="" style="shape=umlLifeline;perimeter=lifelinePerimeter;whiteSpace=wrap;html=1;container=1;dropTarget=0;collapsible=0;recursiveResize=0;outlineConnect=0;portConstraint=eastwest;newEdgeStyle={&quot;curved&quot;:0,&quot;rounded&quot;:0};participant=umlActor;" parent="1" vertex="1">
          <mxGeometry x="80" y="80" width="20" height="570" as="geometry" />
        </mxCell>
        <mxCell id="voYhq8gGjPCUMUibBYCb-5" value="" style="html=1;points=[[0,0,0,0,5],[0,1,0,0,-5],[1,0,0,0,5],[1,1,0,0,-5]];perimeter=orthogonalPerimeter;outlineConnect=0;targetShapes=umlLifeline;portConstraint=eastwest;newEdgeStyle={&quot;curved&quot;:0,&quot;rounded&quot;:0};" parent="voYhq8gGjPCUMUibBYCb-4" vertex="1">
          <mxGeometry x="5" y="80" width="10" height="450" as="geometry" />
        </mxCell>
        <mxCell id="voYhq8gGjPCUMUibBYCb-10" value="&lt;font style=&quot;font-size: 11px;&quot;&gt;Выбор кинофильма&lt;/font&gt;" style="html=1;verticalAlign=bottom;endArrow=block;labelBackgroundColor=none;fontFamily=Verdana;fontSize=12;edgeStyle=elbowEdgeStyle;elbow=vertical;" parent="1" edge="1">
          <mxGeometry relative="1" as="geometry">
            <mxPoint x="100" y="290.17" as="sourcePoint" />
            <mxPoint x="280" y="290" as="targetPoint" />
          </mxGeometry>
        </mxCell>
        <mxCell id="voYhq8gGjPCUMUibBYCb-11" value="&lt;font style=&quot;font-size: 11px;&quot;&gt;Запрос на получение информации&lt;/font&gt;&lt;div&gt;&lt;font style=&quot;font-size: 11px;&quot;&gt;о выбранном кинофильме&lt;/font&gt;&lt;/div&gt;" style="html=1;verticalAlign=bottom;endArrow=block;labelBackgroundColor=none;fontFamily=Verdana;fontSize=12;edgeStyle=elbowEdgeStyle;elbow=vertical;" parent="1" edge="1">
          <mxGeometry relative="1" as="geometry">
            <mxPoint x="300" y="310" as="sourcePoint" />
            <mxPoint x="510" y="310" as="targetPoint" />
          </mxGeometry>
        </mxCell>
        <mxCell id="voYhq8gGjPCUMUibBYCb-15" value="Возврат информации" style="html=1;verticalAlign=bottom;endArrow=open;dashed=1;endSize=8;curved=0;rounded=0;" parent="1" edge="1">
          <mxGeometry relative="1" as="geometry">
            <mxPoint x="505" y="360" as="sourcePoint" />
            <mxPoint x="300" y="360" as="targetPoint" />
          </mxGeometry>
        </mxCell>
        <mxCell id="voYhq8gGjPCUMUibBYCb-20" value="Перенос билета&lt;div&gt;в секцию Выбранное&lt;/div&gt;" style="html=1;verticalAlign=bottom;endArrow=open;dashed=1;endSize=8;curved=0;rounded=0;exitX=-0.035;exitY=0.605;exitDx=0;exitDy=0;exitPerimeter=0;" parent="1" edge="1" source="7baba1c4bc27f4b0-10">
          <mxGeometry x="0.0031" relative="1" as="geometry">
            <mxPoint x="280" y="440" as="sourcePoint" />
            <mxPoint x="100" y="440" as="targetPoint" />
            <mxPoint as="offset" />
          </mxGeometry>
        </mxCell>
        <mxCell id="ys7FztA4TdzvWo9HPw_2-5" value="&lt;span style=&quot;font-size: 11px;&quot;&gt;Сохранение данных через контекст&lt;/span&gt;&lt;div&gt;&lt;span style=&quot;font-size: 11px;&quot;&gt;в сущности покупок&lt;/span&gt;&lt;/div&gt;" style="html=1;verticalAlign=bottom;endArrow=block;entryX=0;entryY=0;labelBackgroundColor=none;fontFamily=Verdana;fontSize=12;edgeStyle=elbowEdgeStyle;elbow=vertical;" edge="1" parent="1">
          <mxGeometry relative="1" as="geometry">
            <mxPoint x="290" y="550" as="sourcePoint" />
            <mxPoint x="505" y="550" as="targetPoint" />
          </mxGeometry>
        </mxCell>
      </root>
    </mxGraphModel>
  </diagram>
</mxfile>
